<svg width="60" height="40" viewBox="0 0 60 40" fill="none" xmlns="http://www.w3.org/2000/svg">
<g clip-path="url(#clip0_184_5734)">
<path d="M22.7483 19.747C23.8717 20.1215 24.5094 20.7692 24.5903 21.8927C24.6814 23.1376 24.145 24.0687 23.143 24.7569C22.5661 25.1618 21.9083 25.4047 21.22 25.5261C19.9144 25.769 18.5987 25.7791 17.2931 25.5666C15.9774 25.3541 15.4005 24.5545 15.6838 23.2388C16.2709 20.5263 16.8984 17.8139 17.5158 15.1116C17.5664 14.8991 17.6271 14.7371 17.9003 14.7169C19.378 14.5853 20.8456 14.3626 22.3334 14.6157C22.8799 14.7068 23.4062 14.8383 23.892 15.0812C25.5721 15.9112 25.7441 17.9151 24.2563 19.0386C23.8313 19.3523 23.3556 19.5547 22.7483 19.747ZM18.8821 20.7794C18.6898 21.6599 18.5076 22.4696 18.3254 23.2691C18.2546 23.5728 18.2951 23.8157 18.6594 23.8359C19.5096 23.8764 20.3598 23.8359 21.1188 23.3906C21.6957 23.0566 21.9386 22.5303 21.8577 21.8623C21.7767 21.2247 21.3213 20.9717 20.7646 20.7996C20.1472 20.6174 19.5501 20.9211 18.8821 20.7794ZM20.7545 16.3565C20.4913 16.5285 19.9954 16.1136 19.8335 16.6601C19.6614 17.2674 19.54 17.8949 19.3983 18.5224C19.3477 18.7349 19.4185 18.9272 19.6513 18.9373C20.5622 18.9879 21.4731 18.9981 22.2119 18.3503C22.9305 17.7228 22.7078 16.7512 21.7969 16.4577C21.4731 16.3666 21.1391 16.3666 20.7545 16.3565ZM44.721 16.5083C44.2049 15.0914 42.8993 14.7574 41.5633 14.6258C40.3285 14.5043 39.0836 14.5651 37.8489 14.7068C37.4238 14.7574 37.2112 14.9193 37.11 15.3646C36.3813 18.6843 35.6222 22.004 34.8834 25.3237C34.853 25.4452 34.7923 25.5767 34.9543 25.7285H35.9259C37.1606 25.7285 37.525 25.435 37.7983 24.2408C37.9602 23.5323 38.1221 22.8137 38.2739 22.1255C38.527 22.0344 38.7294 22.1052 38.9318 22.1153C40.7131 22.1761 42.4033 21.8826 43.7089 20.5466C44.8222 19.413 45.2878 18.0366 44.721 16.5083ZM42.4944 18.2795C42.2515 19.4333 41.2596 20.1519 39.8933 20.162C39.0027 20.162 38.9217 20.0608 39.114 19.16C39.2759 18.4212 39.448 17.6925 39.5796 16.9536C39.6403 16.5893 39.8225 16.4476 40.1767 16.4476C40.5512 16.4375 40.9257 16.4172 41.3001 16.4881C42.2717 16.6702 42.6968 17.3079 42.4944 18.2795ZM34.7316 14.8181C32.3936 13.9679 30.1468 14.1197 28.2137 15.7897C26.3615 17.3888 25.7745 19.5142 26.0073 21.9028C26.1389 23.2691 26.7157 24.4128 27.9404 25.1112C29.499 26.0018 31.169 26.0322 32.8491 25.5362C33.2236 25.4249 33.5069 25.1618 33.6082 24.767C33.76 24.1699 33.8916 23.5728 34.0434 22.8947C33.5171 23.178 33.092 23.4412 32.6062 23.593C31.0779 24.0687 29.5496 23.4817 29.0132 22.2064C28.2744 20.4454 29.327 17.6722 31.0779 16.8625C32.5151 16.2047 33.9017 16.4982 35.2882 17.2674C35.3692 16.9637 35.4502 16.6905 35.521 16.4172C35.7235 15.5772 35.5514 15.1217 34.7316 14.8181Z" fill="#BEBEBE"/>
<path d="M11.2508 15.648C12.6273 16.3464 13.7305 17.3483 14.5402 18.6438C15.0361 19.4434 14.9754 20.3239 14.4187 21.0931C13.275 22.6922 11.7569 23.8663 9.99582 24.676C8.81166 25.2225 7.50605 24.5849 7 23.2995C7.70847 22.925 8.41694 22.5404 9.06469 22.0647C10.0363 21.3563 10.8763 20.5365 11.2913 19.3725C11.8581 18.1277 11.9087 16.8828 11.2508 15.648ZM49.2046 15.648C50.5811 16.3362 51.6843 17.3585 52.5041 18.6438C53 19.4231 52.9595 20.2834 52.4231 21.0425C51.2693 22.6821 49.7208 23.8764 47.9193 24.6962C46.7452 25.2225 45.47 24.5747 44.974 23.3197C45.642 22.9554 46.3201 22.591 46.9375 22.1356C47.9395 21.4069 48.8301 20.5769 49.2552 19.3725C49.8321 18.1175 49.8726 16.8727 49.2046 15.648Z" fill="#BEBEBE"/>
<path d="M11.2508 15.648C11.9087 16.8828 11.848 18.1175 11.2812 19.3624C10.4209 18.4313 9.34809 17.7937 8.21454 17.2876C8.81168 15.6784 10.1679 14.9699 11.2508 15.648ZM49.2046 15.648C49.8726 16.8828 49.8321 18.1175 49.2451 19.3725C48.395 18.4414 47.3323 17.8139 46.138 17.2775C46.5327 16.3868 47.0995 15.7391 47.9901 15.4051C48.4456 15.2229 48.8403 15.3545 49.2046 15.648Z" fill="#393B43"/>
</g>
<defs>
<clipPath id="clip0_184_5734">
<rect width="46" height="15.8056" fill="white" transform="translate(7 12.0972)"/>
</clipPath>
</defs>
</svg>
