<svg xmlns="http://www.w3.org/2000/svg" xmlns:xlink="http://www.w3.org/1999/xlink" viewBox="0 0 59.56 22.17"><defs><style>.cls-1{isolation:isolate;}.cls-2{fill:url(#Degradado_sin_nombre_587);}.cls-3{mix-blend-mode:overlay;fill:url(#Degradado_sin_nombre_587-2);}.cls-4{fill:#0080ff;stroke:#0080ff;stroke-miterlimit:10;stroke-width:0.11px;}</style><linearGradient id="Degradado_sin_nombre_587" x1="7.88" y1="22.36" x2="22.42" y2="7.82" gradientTransform="translate(30.3 30.18) rotate(-180)" gradientUnits="userSpaceOnUse"><stop offset="0" stop-color="#003cff"/><stop offset="1" stop-color="#00d0e7"/></linearGradient><linearGradient id="Degradado_sin_nombre_587-2" x1="2.49" y1="13.22" x2="13.28" y2="2.43" gradientTransform="translate(15.76 15.64) rotate(180)" xlink:href="#Degradado_sin_nombre_587"/></defs><title>EAI_log</title><g class="cls-1"><g id="Capa_1" data-name="Capa 1"><rect class="cls-2" x="7.88" y="7.82" width="14.54" height="14.54" transform="translate(30.05 29.99) rotate(180)"/><rect class="cls-3" x="0.25" y="0.19" width="15.26" height="15.26" rx="7.63" ry="7.63" transform="translate(15.51 15.45) rotate(-180)"/><path class="cls-4" d="M31.62,10.85v0.23H29.74V7.82h1.85V8.06H30V9.32h1.49V9.55H30v1.29h1.63Z" transform="translate(-0.25 -0.19)"/><path class="cls-4" d="M33.81,10.47a0.73,0.73,0,0,1-.83.66,0.88,0.88,0,0,1-.88-0.52l0.2-.12a0.66,0.66,0,0,0,.68.41,0.51,0.51,0,0,0,.6-0.44c0-.63-1.41-0.27-1.41-1.11A0.71,0.71,0,0,1,33,8.7a0.82,0.82,0,0,1,.79.46l-0.2.11A0.61,0.61,0,0,0,33,8.93a0.49,0.49,0,0,0-.56.44C32.4,10,33.81,9.62,33.81,10.47Z" transform="translate(-0.25 -0.19)"/><path class="cls-4" d="M34.22,9.92A1.19,1.19,0,0,1,35.44,8.7a1.09,1.09,0,0,1,1,.6l-0.19.11a0.88,0.88,0,0,0-.82-0.48,1,1,0,0,0,0,2,0.93,0.93,0,0,0,.84-0.48l0.2,0.12a1.14,1.14,0,0,1-1,.59A1.19,1.19,0,0,1,34.22,9.92Z" transform="translate(-0.25 -0.19)"/><path class="cls-4" d="M39,8.75v2.33H38.74V10.64a0.88,0.88,0,0,1-.83.49A0.86,0.86,0,0,1,37,10.2V8.75h0.24V10.2a0.64,0.64,0,0,0,.68.71A0.81,0.81,0,0,0,38.74,10V8.75H39Z" transform="translate(-0.25 -0.19)"/><path class="cls-4" d="M42,9.93s0,0.07,0,.11H39.84a1,1,0,0,0,1,.87,0.89,0.89,0,0,0,.81-0.42l0.2,0.12a1.15,1.15,0,0,1-1,.53A1.22,1.22,0,1,1,42,9.93Zm-2.11-.12h1.87a0.9,0.9,0,0,0-.91-0.88A0.94,0.94,0,0,0,39.84,9.81Z" transform="translate(-0.25 -0.19)"/><path class="cls-4" d="M42.57,7.68H42.8v3.4H42.57V7.68Z" transform="translate(-0.25 -0.19)"/><path class="cls-4" d="M45.87,8.75v2.33H45.63V10.55a1.12,1.12,0,0,1-1,.58,1.21,1.21,0,0,1,0-2.43,1.12,1.12,0,0,1,1,.58V8.75h0.24ZM45.63,9.92a1,1,0,1,0-1,1A1,1,0,0,0,45.63,9.92Z" transform="translate(-0.25 -0.19)"/><path class="cls-4" d="M31.62,15.84H30l-0.32.83H29.41l1.26-3.26h0.26l1.26,3.26H31.93Zm-0.09-.23L30.8,13.71l-0.73,1.89h1.45Z" transform="translate(-0.25 -0.19)"/><path class="cls-4" d="M36,15.19v1.48H35.79V15.19a0.6,0.6,0,0,0-.62-0.68,0.72,0.72,0,0,0-.7.86v1.3H34.24V15.19a0.59,0.59,0,0,0-.6-0.68,0.74,0.74,0,0,0-.72.86v1.3H32.69V14.34h0.23v0.4a0.81,0.81,0,0,1,.75-0.45,0.74,0.74,0,0,1,.73.47,0.85,0.85,0,0,1,.78-0.47A0.81,0.81,0,0,1,36,15.19Z" transform="translate(-0.25 -0.19)"/><path class="cls-4" d="M38.95,15.51s0,0.07,0,.11H36.84a1,1,0,0,0,1,.87,0.88,0.88,0,0,0,.8-0.42l0.21,0.12a1.15,1.15,0,0,1-1,.53A1.22,1.22,0,1,1,38.95,15.51Zm-2.11-.12h1.87a0.9,0.9,0,0,0-.91-0.88A0.94,0.94,0,0,0,36.84,15.4Z" transform="translate(-0.25 -0.19)"/><path class="cls-4" d="M40.57,14.31v0.22a0.75,0.75,0,0,0-.78.84v1.29H39.56V14.34H39.8V14.8A0.78,0.78,0,0,1,40.57,14.31Z" transform="translate(-0.25 -0.19)"/><path class="cls-4" d="M41,13.59a0.19,0.19,0,1,1,.19.19A0.19,0.19,0,0,1,41,13.59Zm0.07,0.75h0.23v2.33H41.11V14.34Z" transform="translate(-0.25 -0.19)"/><path class="cls-4" d="M42,15.5a1.19,1.19,0,0,1,1.22-1.21,1.09,1.09,0,0,1,1,.6L44,15a0.88,0.88,0,0,0-.82-0.48,1,1,0,0,0,0,2A0.93,0.93,0,0,0,44,16l0.2,0.12a1.14,1.14,0,0,1-1,.59A1.19,1.19,0,0,1,42,15.5Z" transform="translate(-0.25 -0.19)"/><path class="cls-4" d="M47.08,14.34v2.33H46.84V16.14a1.12,1.12,0,0,1-1,.58,1.21,1.21,0,0,1,0-2.43,1.12,1.12,0,0,1,1,.58V14.34h0.24ZM46.84,15.5a1,1,0,1,0-1,1A1,1,0,0,0,46.84,15.5Z" transform="translate(-0.25 -0.19)"/><path class="cls-4" d="M49.83,15.22v1.45H49.59V15.22a0.64,0.64,0,0,0-.68-0.71,0.81,0.81,0,0,0-.81.93v1.23H47.86V14.34H48.1v0.44a0.88,0.88,0,0,1,.83-0.49A0.86,0.86,0,0,1,49.83,15.22Z" transform="translate(-0.25 -0.19)"/><path class="cls-4" d="M52.84,14.34v2.33H52.61V16.14a1.12,1.12,0,0,1-1,.58,1.21,1.21,0,0,1,0-2.43,1.12,1.12,0,0,1,1,.58V14.34h0.24ZM52.61,15.5a1,1,0,1,0-1,1A1,1,0,0,0,52.61,15.5Z" transform="translate(-0.25 -0.19)"/><path class="cls-4" d="M31.76,19.27v3H31.54V21.76a1,1,0,0,1-.92.54,1.11,1.11,0,0,1,0-2.23,1,1,0,0,1,.92.54V19.27h0.21Zm-0.21,1.92a0.9,0.9,0,1,0-.9.91A0.9,0.9,0,0,0,31.54,21.19Z" transform="translate(-0.25 -0.19)"/><path class="cls-4" d="M34.49,21.19s0,0.07,0,.1H32.56a0.87,0.87,0,0,0,.9.8,0.81,0.81,0,0,0,.74-0.39l0.19,0.11a1,1,0,0,1-.93.48A1.11,1.11,0,1,1,34.49,21.19Zm-1.94-.11h1.71a0.83,0.83,0,0,0-.83-0.81A0.86,0.86,0,0,0,32.56,21.09Z" transform="translate(-0.25 -0.19)"/><path class="cls-4" d="M36.69,19v3.26H36.45V19h0.25Z" transform="translate(-0.25 -0.19)"/><path class="cls-4" d="M39.5,20.8v1.45H39.26V20.8a0.64,0.64,0,0,0-.68-0.71,0.81,0.81,0,0,0-.81.93v1.23H37.53V19.93h0.23v0.44a0.88,0.88,0,0,1,.83-0.49A0.86,0.86,0,0,1,39.5,20.8Z" transform="translate(-0.25 -0.19)"/><path class="cls-4" d="M42.19,20.8v1.45H42V20.8a0.64,0.64,0,0,0-.68-0.71,0.81,0.81,0,0,0-.81.93v1.23H40.22V19.93h0.23v0.44a0.88,0.88,0,0,1,.83-0.49A0.86,0.86,0,0,1,42.19,20.8Z" transform="translate(-0.25 -0.19)"/><path class="cls-4" d="M42.76,21.09A1.22,1.22,0,1,1,44,22.3,1.21,1.21,0,0,1,42.76,21.09Zm2.2,0a1,1,0,1,0-1,1A1,1,0,0,0,45,21.09Z" transform="translate(-0.25 -0.19)"/><path class="cls-4" d="M47.69,19.93l-1,2.33H46.43l-1-2.33h0.25L46.57,22l0.88-2.08h0.25Z" transform="translate(-0.25 -0.19)"/><path class="cls-4" d="M50.38,19.93v2.33H50.14V21.73a1.12,1.12,0,0,1-1,.58,1.21,1.21,0,0,1,0-2.43,1.12,1.12,0,0,1,1,.58V19.93h0.24Zm-0.24,1.16a1,1,0,1,0-1,1A1,1,0,0,0,50.14,21.09Z" transform="translate(-0.25 -0.19)"/><path class="cls-4" d="M51,21.09a1.19,1.19,0,0,1,1.22-1.21,1.09,1.09,0,0,1,1,.6l-0.19.11a0.88,0.88,0,0,0-.82-0.48,1,1,0,0,0,0,2,0.93,0.93,0,0,0,.84-0.48l0.2,0.12a1.14,1.14,0,0,1-1,.59A1.19,1.19,0,0,1,51,21.09Z" transform="translate(-0.25 -0.19)"/><path class="cls-4" d="M53.78,19.18a0.19,0.19,0,1,1,.19.19A0.19,0.19,0,0,1,53.78,19.18Zm0.07,0.75h0.23v2.33H53.85V19.93Z" transform="translate(-0.25 -0.19)"/><path class="cls-4" d="M54.71,21.09a1.22,1.22,0,1,1,1.22,1.21A1.2,1.2,0,0,1,54.71,21.09Zm2.2,0a1,1,0,1,0-1,1A1,1,0,0,0,56.91,21.09ZM56,19.6L56.38,19H56.1l-0.37.59H56Z" transform="translate(-0.25 -0.19)"/><path class="cls-4" d="M59.75,20.8v1.45H59.51V20.8a0.64,0.64,0,0,0-.68-0.71A0.81,0.81,0,0,0,58,21v1.23H57.78V19.93H58v0.44a0.88,0.88,0,0,1,.83-0.49A0.86,0.86,0,0,1,59.75,20.8Z" transform="translate(-0.25 -0.19)"/></g></g></svg>