
<svg width="62px" height="20px" viewBox="0 0 62 20" version="1.1" xmlns="http://www.w3.org/2000/svg" xmlns:xlink="http://www.w3.org/1999/xlink">
    <g id="Page-1" stroke="none" stroke-width="1" fill="none" fill-rule="evenodd">
        <g id="Home" transform="translate(-609.000000, -657.000000)" fill="#BEBEBE">
            <g id="Efecty" transform="translate(609.000000, 657.000000)">
                <path d="M35.8887,9.7647 C35.9735,8.7556 36.4357,7.9076 37.4745,7.8991 C38.4751,7.8991 38.9881,8.7725 38.9966,9.7647 L35.8887,9.7647 Z M24.1058,9.7477 C24.2245,8.7471 24.6061,7.9203 25.6746,7.9033 C26.7049,7.8864 27.1967,8.7386 27.2434,9.7689 L24.1058,9.752 L24.1058,9.7477 Z M28.7062,13.7291 L28.244,12.6351 C27.8073,12.7539 27.5402,12.9701 26.972,13.0719 C25.4965,13.322 24.1609,12.6351 24.1312,10.9561 L28.9267,10.9561 C28.9267,9.2771 28.6299,7.3479 26.7558,6.7628 C25.8951,6.4829 24.8351,6.5847 24.1228,7.0129 C21.5236,8.5732 21.6551,14.5007 26.2088,14.4456 C27.0823,14.4371 28.1931,14.1955 28.7062,13.7333 L28.7062,13.7291 Z M41.566,10.7314 C41.6678,15.1367 46.4547,14.8951 47.7437,13.7291 C47.6971,13.5425 47.3706,12.7199 47.2603,12.6055 C46.3784,12.9659 45.5177,13.3771 44.4492,12.8471 C42.7872,12.0288 42.9101,8.9421 44.5892,8.1704 C45.2379,7.8736 46.1367,7.9033 46.8151,8.1874 C47.0568,8.2976 47.2307,8.4206 47.4257,8.5012 L47.4257,7.0723 C46.442,6.6822 45.7297,6.4236 44.4832,6.6992 C42.6091,7.1359 41.5236,8.8531 41.5618,10.7272 L41.566,10.7314 Z M30.4912,6.7882 L30.5082,5.1389 C30.4912,4.5537 31.017,3.6464 31.742,3.3114 C32.4119,3.0061 33.6797,2.9849 34.3114,3.3962 L34.0062,4.7064 C32.1236,4.2909 32.1321,4.6428 32.1321,6.7925 L34.1842,6.7925 L33.6542,8.1026 L32.1321,8.1111 L32.1321,14.2718 C31.8268,14.3099 30.7583,14.3269 30.4912,14.2548 L30.4912,8.1238 L29.6644,8.1068 L29.1556,6.8094 L30.4912,6.8009 L30.4912,6.7882 Z M49.4143,8.1408 L49.4312,12.6012 C49.4694,13.0295 49.5245,13.2711 49.6093,13.445 C50.2114,14.7636 52.3017,14.6407 53.5143,13.852 L52.9758,12.7284 C52.5773,12.8768 52.1024,13.2118 51.5385,13.0337 C51.0382,12.8853 51.0763,12.2917 51.0763,11.7066 L51.0763,8.0984 L54.4429,8.1068 L57.1522,14.2845 C57.2073,14.5516 56.6053,15.6201 56.4738,15.7982 C55.5368,17.1168 54.6634,16.5571 53.9129,16.3918 L53.5398,17.7274 C54.9686,18.2743 56.4611,18.0708 57.2964,17.1592 C58.0384,16.3536 58.4666,15.2215 58.9288,13.958 L61.5279,6.7755 L59.8022,6.7755 L57.9748,12.296 C57.7882,12.0924 56.3806,8.5563 56.1177,7.9542 C55.7658,7.1359 55.257,6.784 54.1715,6.7755 C53.1497,6.767 52.1194,6.7755 51.0721,6.7755 L51.0721,4.558 C50.7117,4.6428 49.6814,4.9481 49.41,5.088 L49.41,6.7501 L48.0744,6.767 L48.0829,8.0941 L49.41,8.1323 L49.4143,8.1408 Z M15.2994,1.2932 C18.7422,2.4973 20.7392,5.9402 19.9676,9.9979 C19.0645,14.7255 14.7185,18.6178 9.9994,19.1138 C9.6263,19.1011 9.6178,18.8891 9.6051,18.5754 C9.622,17.9224 9.6475,17.261 9.6644,16.608 C9.6687,16.5105 9.6347,16.4808 9.5923,16.4681 C9.109,16.4215 8.6299,16.3112 8.1592,16.1671 C7.6504,15.9678 7.1374,15.6752 6.6201,15.3445 C6.3827,15.23 6.4123,14.6831 6.4208,14.4711 C6.4632,14.0852 6.7473,13.1821 7.2095,13.1397 C7.7607,13.11 8.0193,13.3983 8.5663,13.6655 C9.5245,14.1191 10.8601,14.3863 11.8522,13.9199 C12.3314,13.6273 12.4458,13.2372 12.2211,12.7411 C11.8353,11.9313 9.9739,11.2656 9.1344,10.8586 C7.1204,9.9979 5.9926,8.2552 6.3487,6.1777 C6.6159,4.647 8.049,3.4853 9.5499,3.2733 L9.5499,2.5397 C7.6971,3.0782 6.2894,4.1425 5.0216,5.3848 C3.1857,7.1783 2.1088,9.4382 2.0197,12.3341 C2.1639,15.8745 4.004,17.4433 5.929,18.6178 C2.626,17.3415 0.7392,13.9623 1.494,9.9979 C2.4183,5.1431 6.972,1.1745 11.8438,0.8522 C12.0388,0.9667 12.0515,0.9837 12.1533,1.2466 C12.1109,1.8571 12.0727,2.4677 12.0303,3.0825 C12.9928,3.2775 13.9002,3.5489 14.6337,4.1721 C14.6591,5.5756 13.6034,6.1649 13.2048,5.9529 C13.2218,5.8851 11.619,5.4441 11.2841,5.3678 C10.877,5.3 10.4785,5.3254 10.0799,5.5077 C9.6093,5.7325 9.3846,6.0632 9.6093,6.5847 C9.8043,6.9705 10.1223,7.2249 10.4742,7.4454 C11.4834,7.9881 12.4967,8.5393 13.5058,9.0863 C14.3793,9.5781 15.0026,10.2141 15.4011,10.9816 C15.6937,11.7448 15.7573,12.5207 15.5877,13.3051 C15.3884,13.9453 15.1467,14.505 14.7778,14.8527 C14.4683,15.2046 14.1291,15.4759 13.7687,15.671 C13.2557,15.9423 12.7384,16.184 12.2084,16.2688 C12.1914,16.5953 12.1787,16.9175 12.1618,17.244 C12.2042,17.2694 12.2466,17.2567 12.2932,17.244 C13.438,16.8751 14.4429,16.2264 15.4223,15.5183 C16.6943,14.399 17.8815,13.2245 18.5048,11.7066 C18.9288,10.8586 19.2553,9.9216 19.4121,8.8192 C19.7556,5.7325 18.632,2.8281 15.3036,1.3017 L15.2994,1.2932 Z M12.6451,0 C18.208,0 21.8628,4.4732 20.8113,9.9979 C19.7598,15.5226 14.3878,19.9958 8.8249,19.9958 C3.262,19.9958 -0.4013,15.5268 0.6544,9.9979 C1.7102,4.4732 7.0738,0 12.6451,0 Z M34.2182,10.8374 C34.3962,13.6103 36.5459,14.9205 39.1917,14.2972 C39.7768,14.1573 40.0524,13.9368 40.4891,13.7884 L40.0269,12.6182 C39.357,12.8217 38.4963,13.3983 37.2921,12.9786 C36.495,12.6903 35.9396,11.9949 35.9099,10.9561 L40.7138,10.9476 C40.7138,8.7598 40.0566,6.6144 37.5296,6.5974 C35.0619,6.5677 34.0867,8.6496 34.2182,10.8374 Z" id="Shape"></path>
            </g>
        </g>
    </g>
</svg>