<svg width="518" height="87" viewBox="0 0 518 87" fill="none" xmlns="http://www.w3.org/2000/svg">
<g clip-path="url(#clip0_142_2305)">
<path d="M14.8597 78.903C14.8597 74.8035 11.5294 71.4732 7.42988 71.4732L7.42988 64.7495L21.5834 64.7495L21.5834 78.903L14.8597 78.903Z" stroke="#C1D1ED" stroke-width="0.737711" stroke-miterlimit="10"/>
<path d="M14.8597 78.903C14.8597 83.0025 11.5295 86.3328 7.42988 86.3328C3.33032 86.3328 5.57811e-05 83.0025 5.6159e-05 78.903C5.6537e-05 74.8034 3.33032 71.4731 7.42988 71.4731L7.42988 78.903L14.8597 78.903Z" stroke="#C1D1ED" stroke-width="0.737711" stroke-miterlimit="10"/>
<path d="M7.42988 71.4731L7.42988 78.903L14.8597 78.903C14.8597 74.8034 11.5295 71.4731 7.42988 71.4731Z" fill="#3375DB"/>
<path d="M72.1798 79.6088C76.2794 79.6088 79.6097 76.2785 79.6097 72.179L86.3334 72.179L86.3334 86.3325L72.1798 86.3325L72.1798 79.6088V79.6088Z" stroke="#C1D1ED" stroke-width="0.737711" stroke-miterlimit="10"/>
<path d="M72.1798 79.6091C68.0803 79.6091 64.75 76.2789 64.75 72.1793C64.75 68.0797 68.0803 64.7495 72.1798 64.7495C76.2794 64.7495 79.6097 68.0797 79.6097 72.1793L72.1798 72.1793L72.1798 79.6091Z" stroke="#C1D1ED" stroke-width="0.737711" stroke-miterlimit="10"/>
<path d="M28.3071 50.5959C28.3071 54.6955 31.6374 58.0258 35.7369 58.0258L35.7369 64.7495L21.5834 64.7495L21.5834 50.5959L28.3071 50.5959Z" stroke="#C1D1ED" stroke-width="0.737711" stroke-miterlimit="10"/>
<path d="M28.3071 50.5961C28.3071 46.4965 31.6373 43.1663 35.7369 43.1663C39.8365 43.1663 43.1667 46.4965 43.1667 50.5961C43.1667 54.6956 39.8365 58.0259 35.7369 58.0259L35.7369 50.5961L28.3071 50.5961Z" stroke="#C1D1ED" stroke-width="0.737711" stroke-miterlimit="10"/>
<path d="M57.3203 49.89C53.2207 49.89 49.8905 53.2202 49.8905 57.3198L43.1668 57.3198L43.1668 43.1663L57.3203 43.1663L57.3203 49.89Z" stroke="#C1D1ED" stroke-width="0.737711" stroke-miterlimit="10"/>
<path d="M57.3203 49.8899C61.4198 49.8899 64.7501 53.2201 64.7501 57.3197C64.7501 61.4193 61.4198 64.7495 57.3203 64.7495C53.2207 64.7495 49.8905 61.4193 49.8905 57.3197L57.3203 57.3197L57.3203 49.8899Z" stroke="#C1D1ED" stroke-width="0.737711" stroke-miterlimit="10"/>
<path d="M49.8905 57.3197L57.3203 57.3197L57.3203 49.8899C53.2207 49.8899 49.8905 53.2201 49.8905 57.3197Z" fill="#3375DB"/>
<path d="M144.36 78.903C144.36 74.8035 141.029 71.4732 136.93 71.4732L136.93 64.7495L151.083 64.7495L151.083 78.903L144.36 78.903Z" stroke="#C1D1ED" stroke-width="0.737711" stroke-miterlimit="10"/>
<path d="M144.36 78.903C144.36 83.0025 141.029 86.3328 136.93 86.3328C132.83 86.3328 129.5 83.0025 129.5 78.903C129.5 74.8034 132.83 71.4731 136.93 71.4731L136.93 78.903L144.36 78.903Z" stroke="#C1D1ED" stroke-width="0.737711" stroke-miterlimit="10"/>
<path d="M100.487 49.89C96.3873 49.89 93.0571 53.2202 93.0571 57.3198L86.3334 57.3198L86.3334 43.1663L100.487 43.1663L100.487 49.89Z" stroke="#C1D1ED" stroke-width="0.737711" stroke-miterlimit="10"/>
<path d="M100.487 49.8899C104.586 49.8899 107.917 53.2201 107.917 57.3197C107.917 61.4193 104.586 64.7495 100.487 64.7495C96.3873 64.7495 93.0571 61.4193 93.0571 57.3197L100.487 57.3197L100.487 49.8899Z" stroke="#C1D1ED" stroke-width="0.737711" stroke-miterlimit="10"/>
<path d="M114.64 50.5959C114.64 54.6955 117.971 58.0258 122.07 58.0258L122.07 64.7495L107.917 64.7495L107.917 50.5959L114.64 50.5959Z" stroke="#C1D1ED" stroke-width="0.737711" stroke-miterlimit="10"/>
<path d="M114.64 50.5961C114.64 46.4965 117.971 43.1663 122.07 43.1663C126.17 43.1663 129.5 46.4965 129.5 50.5961C129.5 54.6956 126.17 58.0259 122.07 58.0259L122.07 50.5961L114.64 50.5961Z" stroke="#C1D1ED" stroke-width="0.737711" stroke-miterlimit="10"/>
<path d="M157.807 50.5959C157.807 54.6955 161.137 58.0258 165.237 58.0258L165.237 64.7495L151.083 64.7495L151.083 50.5959L157.807 50.5959Z" stroke="#C1D1ED" stroke-width="0.737711" stroke-miterlimit="10"/>
<path d="M157.807 50.5961C157.807 46.4965 161.137 43.1663 165.237 43.1663C169.336 43.1663 172.667 46.4965 172.667 50.5961C172.667 54.6956 169.336 58.0259 165.237 58.0259L165.237 50.5961L157.807 50.5961Z" stroke="#C1D1ED" stroke-width="0.737711" stroke-miterlimit="10"/>
<path d="M165.237 58.0258L165.237 50.5959L157.807 50.5959C157.807 54.6955 161.137 58.0258 165.237 58.0258Z" fill="#3375DB"/>
<path d="M201.68 79.6088C205.779 79.6088 209.11 76.2785 209.11 72.179L215.833 72.179L215.833 86.3325L201.68 86.3325L201.68 79.6088V79.6088Z" stroke="#C1D1ED" stroke-width="0.737711" stroke-miterlimit="10"/>
<path d="M201.68 79.6091C197.58 79.6091 194.25 76.2789 194.25 72.1793C194.25 68.0797 197.58 64.7495 201.68 64.7495C205.779 64.7495 209.11 68.0797 209.11 72.1793L201.68 72.1793L201.68 79.6091Z" stroke="#C1D1ED" stroke-width="0.737711" stroke-miterlimit="10"/>
<path d="M209.11 72.179L201.68 72.179L201.68 79.6088C205.779 79.6088 209.11 76.2785 209.11 72.179Z" fill="#3375DB"/>
<path d="M186.82 49.89C182.721 49.89 179.39 53.2202 179.39 57.3198L172.667 57.3198L172.667 43.1663L186.82 43.1663L186.82 49.89V49.89Z" stroke="#C1D1ED" stroke-width="0.737711" stroke-miterlimit="10"/>
<path d="M186.82 49.8899C190.92 49.8899 194.25 53.2201 194.25 57.3197C194.25 61.4193 190.92 64.7495 186.82 64.7495C182.721 64.7495 179.39 61.4193 179.39 57.3197L186.82 57.3197L186.82 49.8899Z" stroke="#C1D1ED" stroke-width="0.737711" stroke-miterlimit="10"/>
<path d="M229.987 49.89C225.887 49.89 222.557 53.2202 222.557 57.3198L215.833 57.3198L215.833 43.1663L229.987 43.1663L229.987 49.89Z" stroke="#C1D1ED" stroke-width="0.737711" stroke-miterlimit="10"/>
<path d="M229.987 49.8899C234.086 49.8899 237.417 53.2201 237.417 57.3197C237.417 61.4193 234.086 64.7495 229.987 64.7495C225.887 64.7495 222.557 61.4193 222.557 57.3197L229.987 57.3197L229.987 49.8899Z" stroke="#C1D1ED" stroke-width="0.737711" stroke-miterlimit="10"/>
<path d="M222.557 57.3197L229.987 57.3197L229.987 49.8899C225.887 49.8899 222.557 53.2201 222.557 57.3197Z" fill="#3375DB"/>
<path d="M244.14 50.5959C244.14 54.6955 247.471 58.0258 251.57 58.0258L251.57 64.7495L237.417 64.7495L237.417 50.5959L244.14 50.5959Z" stroke="#C1D1ED" stroke-width="0.737711" stroke-miterlimit="10"/>
<path d="M244.14 50.5961C244.14 46.4965 247.471 43.1663 251.57 43.1663C255.67 43.1663 259 46.4965 259 50.5961C259 54.6956 255.67 58.0259 251.57 58.0259L251.57 50.5961L244.14 50.5961Z" stroke="#C1D1ED" stroke-width="0.737711" stroke-miterlimit="10"/>
<path d="M251.57 58.0258L251.57 50.5959L244.14 50.5959C244.14 54.6955 247.471 58.0258 251.57 58.0258Z" fill="#3375DB"/>
<path d="M14.8596 35.7368C14.8596 31.6372 11.5294 28.307 7.42983 28.307L7.42983 21.5833L21.5833 21.5833L21.5833 35.7368L14.8596 35.7368Z" stroke="#C1D1ED" stroke-width="0.737711" stroke-miterlimit="10"/>
<path d="M14.8597 35.7367C14.8597 39.8363 11.5295 43.1665 7.4299 43.1665C3.33033 43.1665 7.10399e-05 39.8363 7.14178e-05 35.7367C7.17957e-05 31.6371 3.33033 28.3069 7.4299 28.3069L7.4299 35.7367L14.8597 35.7367Z" stroke="#C1D1ED" stroke-width="0.737711" stroke-miterlimit="10"/>
<path d="M7.4299 28.3069L7.4299 35.7367L14.8597 35.7367C14.8597 31.6371 11.5295 28.3069 7.4299 28.3069Z" fill="#3375DB"/>
<path d="M58.0263 35.7368C58.0263 31.6372 54.6961 28.307 50.5965 28.307L50.5965 21.5833L64.75 21.5833L64.75 35.7368L58.0263 35.7368Z" stroke="#C1D1ED" stroke-width="0.737711" stroke-miterlimit="10"/>
<path d="M58.0264 35.7367C58.0264 39.8363 54.6961 43.1665 50.5966 43.1665C46.497 43.1665 43.1668 39.8363 43.1668 35.7367C43.1668 31.6371 46.497 28.3069 50.5966 28.3069L50.5966 35.7367L58.0264 35.7367Z" stroke="#C1D1ED" stroke-width="0.737711" stroke-miterlimit="10"/>
<path d="M29.0132 36.4425C33.1128 36.4425 36.443 33.1123 36.443 29.0127L43.1667 29.0127L43.1667 43.1662L29.0132 43.1662L29.0132 36.4425Z" stroke="#C1D1ED" stroke-width="0.737711" stroke-miterlimit="10"/>
<path d="M29.0132 36.4429C24.9136 36.4429 21.5834 33.1126 21.5834 29.0131C21.5834 24.9135 24.9136 21.5833 29.0132 21.5833C33.1127 21.5833 36.443 24.9135 36.443 29.0131L29.0132 29.0131L29.0132 36.4429Z" stroke="#C1D1ED" stroke-width="0.737711" stroke-miterlimit="10"/>
<path d="M36.443 29.0127L29.0132 29.0127L29.0132 36.4425C33.1128 36.4425 36.443 33.1123 36.443 29.0127Z" fill="#3375DB"/>
<path d="M72.1798 36.4425C76.2794 36.4425 79.6097 33.1123 79.6097 29.0127L86.3334 29.0127L86.3334 43.1662L72.1798 43.1662L72.1798 36.4425Z" stroke="#C1D1ED" stroke-width="0.737711" stroke-miterlimit="10"/>
<path d="M72.1798 36.4429C68.0803 36.4429 64.75 33.1126 64.75 29.0131C64.75 24.9135 68.0803 21.5833 72.1798 21.5833C76.2794 21.5833 79.6097 24.9135 79.6097 29.0131L72.1798 29.0131L72.1798 36.4429Z" stroke="#C1D1ED" stroke-width="0.737711" stroke-miterlimit="10"/>
<path d="M14.1535 6.72371C10.0539 6.72371 6.72371 10.054 6.72371 14.1535L-1.01954e-05 14.1535L-8.89063e-06 -2.93355e-07L14.1535 0L14.1535 6.72371Z" stroke="#C1D1ED" stroke-width="0.737711" stroke-miterlimit="10"/>
<path d="M14.1535 6.72363C18.2531 6.72363 21.5833 10.0539 21.5833 14.1534C21.5833 18.253 18.2531 21.5833 14.1535 21.5832C10.0539 21.5832 6.72372 18.253 6.72372 14.1534L14.1535 14.1534L14.1535 6.72363V6.72363Z" stroke="#C1D1ED" stroke-width="0.737711" stroke-miterlimit="10"/>
<path d="M28.3072 7.42944C28.3072 11.529 31.6374 14.8593 35.737 14.8593L35.737 21.583L21.5835 21.583L21.5835 7.42944L28.3072 7.42944Z" stroke="#C1D1ED" stroke-width="0.737711" stroke-miterlimit="10"/>
<path d="M28.3072 7.42981C28.3072 3.33024 31.6374 -2.38966e-07 35.737 -1.53995e-07C39.8365 -6.90249e-08 43.1668 3.33024 43.1668 7.42981C43.1668 11.5294 39.8365 14.8596 35.737 14.8596L35.737 7.42981L28.3072 7.42981Z" stroke="#C1D1ED" stroke-width="0.737711" stroke-miterlimit="10"/>
<path d="M57.3203 6.72371C53.2207 6.72371 49.8905 10.054 49.8905 14.1535L43.1667 14.1535L43.1667 -2.93356e-07L57.3203 0L57.3203 6.72371Z" stroke="#C1D1ED" stroke-width="0.737711" stroke-miterlimit="10"/>
<path d="M57.3203 6.72363C61.4198 6.72363 64.75 10.0539 64.75 14.1534C64.75 18.253 61.4198 21.5833 57.3202 21.5832C53.2207 21.5832 49.8904 18.253 49.8904 14.1534L57.3202 14.1534L57.3203 6.72363V6.72363Z" stroke="#C1D1ED" stroke-width="0.737711" stroke-miterlimit="10"/>
<path d="M49.8905 14.1534L57.3203 14.1534L57.3203 6.72363C53.2207 6.72363 49.8905 10.0539 49.8905 14.1534Z" fill="#3375DB"/>
<path d="M71.4739 7.42944C71.4739 11.529 74.8041 14.8593 78.9037 14.8593L78.9037 21.583L64.7501 21.583L64.7501 7.42944L71.4739 7.42944Z" stroke="#C1D1ED" stroke-width="0.737711" stroke-miterlimit="10"/>
<path d="M71.4738 7.42981C71.4738 3.33024 74.804 -2.38966e-07 78.9036 -1.53995e-07C83.0032 -6.90249e-08 86.3334 3.33024 86.3334 7.42981C86.3334 11.5294 83.0032 14.8596 78.9036 14.8596L78.9036 7.42981L71.4738 7.42981Z" stroke="#C1D1ED" stroke-width="0.737711" stroke-miterlimit="10"/>
<path d="M78.9037 14.8593L78.9037 7.42944L71.4739 7.42944C71.4739 11.529 74.8041 14.8593 78.9037 14.8593Z" fill="#3375DB"/>
<path d="M101.193 35.7368C101.193 31.6372 97.8627 28.307 93.7631 28.307L93.7631 21.5833L107.917 21.5833L107.917 35.7368L101.193 35.7368Z" stroke="#C1D1ED" stroke-width="0.737711" stroke-miterlimit="10"/>
<path d="M101.193 35.7367C101.193 39.8363 97.8628 43.1665 93.7632 43.1665C89.6636 43.1665 86.3334 39.8363 86.3334 35.7367C86.3334 31.6371 89.6636 28.3069 93.7632 28.3069L93.7632 35.7367L101.193 35.7367Z" stroke="#C1D1ED" stroke-width="0.737711" stroke-miterlimit="10"/>
<path d="M93.7632 28.3069L93.7632 35.7367L101.193 35.7367C101.193 31.6371 97.8628 28.3069 93.7632 28.3069Z" fill="#3375DB"/>
<path d="M144.36 35.7368C144.36 31.6372 141.029 28.307 136.93 28.307L136.93 21.5833L151.083 21.5833L151.083 35.7368L144.36 35.7368Z" stroke="#C1D1ED" stroke-width="0.737711" stroke-miterlimit="10"/>
<path d="M144.36 35.7367C144.36 39.8363 141.029 43.1665 136.93 43.1665C132.83 43.1665 129.5 39.8363 129.5 35.7367C129.5 31.6371 132.83 28.3069 136.93 28.3069L136.93 35.7367L144.36 35.7367Z" stroke="#C1D1ED" stroke-width="0.737711" stroke-miterlimit="10"/>
<path d="M115.347 36.4425C119.446 36.4425 122.776 33.1123 122.776 29.0127L129.5 29.0127L129.5 43.1662L115.347 43.1662L115.347 36.4425Z" stroke="#C1D1ED" stroke-width="0.737711" stroke-miterlimit="10"/>
<path d="M115.347 36.4429C111.247 36.4429 107.917 33.1126 107.917 29.0131C107.917 24.9135 111.247 21.5833 115.347 21.5833C119.446 21.5833 122.776 24.9135 122.776 29.0131L115.347 29.0131L115.347 36.4429Z" stroke="#C1D1ED" stroke-width="0.737711" stroke-miterlimit="10"/>
<path d="M122.776 29.0127L115.347 29.0127L115.347 36.4425C119.446 36.4425 122.776 33.1123 122.776 29.0127Z" fill="#3375DB"/>
<path d="M158.513 36.4425C162.613 36.4425 165.943 33.1123 165.943 29.0127L172.667 29.0127L172.667 43.1662L158.513 43.1662L158.513 36.4425Z" stroke="#C1D1ED" stroke-width="0.737711" stroke-miterlimit="10"/>
<path d="M158.513 36.4429C154.414 36.4429 151.083 33.1126 151.083 29.0131C151.083 24.9135 154.414 21.5833 158.513 21.5833C162.613 21.5833 165.943 24.9135 165.943 29.0131L158.513 29.0131L158.513 36.4429Z" stroke="#C1D1ED" stroke-width="0.737711" stroke-miterlimit="10"/>
<path d="M100.487 6.72371C96.3874 6.72371 93.0572 10.054 93.0572 14.1535L86.3335 14.1535L86.3335 -2.93355e-07L100.487 0L100.487 6.72371Z" stroke="#C1D1ED" stroke-width="0.737711" stroke-miterlimit="10"/>
<path d="M100.487 6.72363C104.587 6.72363 107.917 10.0539 107.917 14.1534C107.917 18.253 104.587 21.5833 100.487 21.5832C96.3874 21.5832 93.0572 18.253 93.0572 14.1534L100.487 14.1534L100.487 6.72363V6.72363Z" stroke="#C1D1ED" stroke-width="0.737711" stroke-miterlimit="10"/>
<path d="M114.64 7.42944C114.64 11.529 117.971 14.8593 122.07 14.8593L122.07 21.583L107.917 21.583L107.917 7.42944L114.64 7.42944Z" stroke="#C1D1ED" stroke-width="0.737711" stroke-miterlimit="10"/>
<path d="M114.64 7.42981C114.64 3.33024 117.971 -2.38966e-07 122.07 -1.53995e-07C126.17 -6.90249e-08 129.5 3.33024 129.5 7.42981C129.5 11.5294 126.17 14.8596 122.07 14.8596L122.07 7.42981L114.64 7.42981Z" stroke="#C1D1ED" stroke-width="0.737711" stroke-miterlimit="10"/>
<path d="M143.654 6.72371C139.554 6.72371 136.224 10.054 136.224 14.1535L129.5 14.1535L129.5 -2.93356e-07L143.654 0L143.654 6.72371Z" stroke="#C1D1ED" stroke-width="0.737711" stroke-miterlimit="10"/>
<path d="M143.654 6.72363C147.753 6.72363 151.083 10.0539 151.083 14.1534C151.083 18.253 147.753 21.5833 143.654 21.5832C139.554 21.5832 136.224 18.253 136.224 14.1534L143.654 14.1534L143.654 6.72363V6.72363Z" stroke="#C1D1ED" stroke-width="0.737711" stroke-miterlimit="10"/>
<path d="M136.224 14.1534L143.654 14.1534L143.654 6.72363C139.554 6.72363 136.224 10.0539 136.224 14.1534Z" fill="#3375DB"/>
<path d="M157.807 7.42944C157.807 11.529 161.137 14.8593 165.237 14.8593L165.237 21.583L151.083 21.583L151.083 7.42944L157.807 7.42944Z" stroke="#C1D1ED" stroke-width="0.737711" stroke-miterlimit="10"/>
<path d="M157.807 7.42981C157.807 3.33024 161.137 -2.38966e-07 165.237 -1.53995e-07C169.336 -6.90247e-08 172.667 3.33024 172.667 7.42981C172.667 11.5294 169.336 14.8596 165.237 14.8596L165.237 7.42981L157.807 7.42981Z" stroke="#C1D1ED" stroke-width="0.737711" stroke-miterlimit="10"/>
<path d="M165.237 14.8593L165.237 7.42944L157.807 7.42944C157.807 11.529 161.137 14.8593 165.237 14.8593Z" fill="#3375DB"/>
<path d="M187.526 35.7368C187.526 31.6372 184.196 28.307 180.096 28.307L180.096 21.5833L194.25 21.5833L194.25 35.7368L187.526 35.7368Z" stroke="#C1D1ED" stroke-width="0.737711" stroke-miterlimit="10"/>
<path d="M187.526 35.7367C187.526 39.8363 184.196 43.1665 180.097 43.1665C175.997 43.1665 172.667 39.8363 172.667 35.7367C172.667 31.6371 175.997 28.3069 180.097 28.3069L180.097 35.7367L187.526 35.7367Z" stroke="#C1D1ED" stroke-width="0.737711" stroke-miterlimit="10"/>
<path d="M180.097 28.3069L180.097 35.7367L187.526 35.7367C187.526 31.6371 184.196 28.3069 180.097 28.3069Z" fill="#3375DB"/>
<path d="M230.693 35.7368C230.693 31.6372 227.363 28.307 223.263 28.307L223.263 21.5833L237.417 21.5833L237.417 35.7368L230.693 35.7368Z" stroke="#C1D1ED" stroke-width="0.737711" stroke-miterlimit="10"/>
<path d="M230.693 35.7367C230.693 39.8363 227.363 43.1665 223.263 43.1665C219.164 43.1665 215.833 39.8363 215.833 35.7367C215.833 31.6371 219.164 28.3069 223.263 28.3069L223.263 35.7367L230.693 35.7367Z" stroke="#C1D1ED" stroke-width="0.737711" stroke-miterlimit="10"/>
<path d="M201.68 36.4425C205.779 36.4425 209.11 33.1123 209.11 29.0127L215.833 29.0127L215.833 43.1662L201.68 43.1662L201.68 36.4425V36.4425Z" stroke="#C1D1ED" stroke-width="0.737711" stroke-miterlimit="10"/>
<path d="M201.68 36.4429C197.58 36.4429 194.25 33.1126 194.25 29.0131C194.25 24.9135 197.58 21.5833 201.68 21.5833C205.779 21.5833 209.11 24.9135 209.11 29.0131L201.68 29.0131L201.68 36.4429Z" stroke="#C1D1ED" stroke-width="0.737711" stroke-miterlimit="10"/>
<path d="M209.11 29.0127L201.68 29.0127L201.68 36.4425C205.779 36.4425 209.11 33.1123 209.11 29.0127Z" fill="#3375DB"/>
<path d="M244.847 36.4435C248.946 36.4435 252.276 33.1132 252.276 29.0137L259 29.0137L259 43.1672L244.847 43.1672L244.847 36.4435Z" stroke="#C1D1ED" stroke-width="0.737711" stroke-miterlimit="10"/>
<path d="M244.847 36.4438C240.747 36.4438 237.417 33.1136 237.417 29.014C237.417 24.9145 240.747 21.5842 244.847 21.5842C248.946 21.5842 252.276 24.9145 252.276 29.014L244.847 29.014L244.847 36.4438Z" stroke="#C1D1ED" stroke-width="0.737711" stroke-miterlimit="10"/>
<path d="M186.82 6.72371C182.721 6.72371 179.39 10.054 179.39 14.1535L172.667 14.1535L172.667 -2.93356e-07L186.82 0L186.82 6.72371V6.72371Z" stroke="#C1D1ED" stroke-width="0.737711" stroke-miterlimit="10"/>
<path d="M186.82 6.72363C190.92 6.72363 194.25 10.0539 194.25 14.1534C194.25 18.253 190.92 21.5833 186.82 21.5832C182.721 21.5832 179.39 18.253 179.39 14.1534L186.82 14.1534L186.82 6.72363V6.72363Z" stroke="#C1D1ED" stroke-width="0.737711" stroke-miterlimit="10"/>
<path d="M200.974 7.42944C200.974 11.529 204.304 14.8593 208.404 14.8593L208.404 21.583L194.25 21.583L194.25 7.42944L200.974 7.42944Z" stroke="#C1D1ED" stroke-width="0.737711" stroke-miterlimit="10"/>
<path d="M200.974 7.42981C200.974 3.33024 204.304 -2.38966e-07 208.404 -1.53995e-07C212.503 -6.90249e-08 215.833 3.33024 215.833 7.42981C215.833 11.5294 212.503 14.8596 208.404 14.8596L208.404 7.42981L200.974 7.42981Z" stroke="#C1D1ED" stroke-width="0.737711" stroke-miterlimit="10"/>
<path d="M229.987 6.72371C225.887 6.72371 222.557 10.054 222.557 14.1535L215.833 14.1535L215.833 -2.93356e-07L229.987 0L229.987 6.72371Z" stroke="#C1D1ED" stroke-width="0.737711" stroke-miterlimit="10"/>
<path d="M229.987 6.72363C234.087 6.72363 237.417 10.0539 237.417 14.1534C237.417 18.253 234.087 21.5833 229.987 21.5832C225.887 21.5832 222.557 18.253 222.557 14.1534L229.987 14.1534L229.987 6.72363V6.72363Z" stroke="#C1D1ED" stroke-width="0.737711" stroke-miterlimit="10"/>
<path d="M222.557 14.1534L229.987 14.1534L229.987 6.72363C225.887 6.72363 222.557 10.0539 222.557 14.1534Z" fill="#3375DB"/>
<path d="M244.14 7.42944C244.14 11.529 247.471 14.8593 251.57 14.8593L251.57 21.583L237.417 21.583L237.417 7.42944L244.14 7.42944Z" stroke="#C1D1ED" stroke-width="0.737711" stroke-miterlimit="10"/>
<path d="M244.14 7.42981C244.14 3.33024 247.471 -2.38966e-07 251.57 -1.53995e-07C255.67 -6.90248e-08 259 3.33024 259 7.42981C259 11.5294 255.67 14.8596 251.57 14.8596L251.57 7.42981L244.14 7.42981Z" stroke="#C1D1ED" stroke-width="0.737711" stroke-miterlimit="10"/>
<path d="M251.57 14.8593L251.57 7.42944L244.14 7.42944C244.14 11.529 247.471 14.8593 251.57 14.8593Z" fill="#3375DB"/>
<path d="M273.86 78.9025C273.86 74.803 270.529 71.4727 266.43 71.4727L266.43 64.749L280.583 64.749L280.583 78.9025L273.86 78.9025Z" stroke="#C1D1ED" stroke-width="0.737711" stroke-miterlimit="10"/>
<path d="M273.86 78.9025C273.86 83.002 270.529 86.3323 266.43 86.3323C262.33 86.3323 259 83.002 259 78.9025C259 74.8029 262.33 71.4727 266.43 71.4727L266.43 78.9025L273.86 78.9025Z" stroke="#C1D1ED" stroke-width="0.737711" stroke-miterlimit="10"/>
<path d="M266.43 71.4727L266.43 78.9025L273.86 78.9025C273.86 74.8029 270.529 71.4727 266.43 71.4727Z" fill="#3375DB"/>
<path d="M331.18 79.6083C335.28 79.6083 338.61 76.278 338.61 72.1785L345.334 72.1785L345.334 86.332L331.18 86.332L331.18 79.6083V79.6083Z" stroke="#C1D1ED" stroke-width="0.737711" stroke-miterlimit="10"/>
<path d="M331.18 79.6086C327.08 79.6086 323.75 76.2784 323.75 72.1788C323.75 68.0793 327.08 64.749 331.18 64.749C335.28 64.749 338.61 68.0793 338.61 72.1788L331.18 72.1788L331.18 79.6086Z" stroke="#C1D1ED" stroke-width="0.737711" stroke-miterlimit="10"/>
<path d="M287.307 50.5959C287.307 54.6955 290.637 58.0258 294.737 58.0258L294.737 64.7495L280.583 64.7495L280.583 50.5959L287.307 50.5959Z" stroke="#C1D1ED" stroke-width="0.737711" stroke-miterlimit="10"/>
<path d="M287.307 50.5961C287.307 46.4965 290.637 43.1663 294.737 43.1663C298.836 43.1663 302.167 46.4965 302.167 50.5961C302.167 54.6956 298.836 58.0259 294.737 58.0259L294.737 50.5961L287.307 50.5961Z" stroke="#C1D1ED" stroke-width="0.737711" stroke-miterlimit="10"/>
<path d="M316.32 49.89C312.221 49.89 308.89 53.2202 308.89 57.3198L302.167 57.3198L302.167 43.1663L316.32 43.1663L316.32 49.89Z" stroke="#C1D1ED" stroke-width="0.737711" stroke-miterlimit="10"/>
<path d="M316.32 49.8899C320.42 49.8899 323.75 53.2201 323.75 57.3197C323.75 61.4193 320.42 64.7495 316.32 64.7495C312.221 64.7495 308.89 61.4193 308.89 57.3197L316.32 57.3197L316.32 49.8899Z" stroke="#C1D1ED" stroke-width="0.737711" stroke-miterlimit="10"/>
<path d="M308.89 57.3197L316.32 57.3197L316.32 49.8899C312.221 49.8899 308.89 53.2201 308.89 57.3197Z" fill="#3375DB"/>
<path d="M403.36 78.9025C403.36 74.803 400.029 71.4727 395.93 71.4727L395.93 64.749L410.083 64.749L410.083 78.9025L403.36 78.9025Z" stroke="#C1D1ED" stroke-width="0.737711" stroke-miterlimit="10"/>
<path d="M403.36 78.9025C403.36 83.002 400.029 86.3323 395.93 86.3323C391.83 86.3323 388.5 83.002 388.5 78.9025C388.5 74.8029 391.83 71.4727 395.93 71.4727L395.93 78.9025L403.36 78.9025Z" stroke="#C1D1ED" stroke-width="0.737711" stroke-miterlimit="10"/>
<path d="M359.487 49.89C355.387 49.89 352.057 53.2202 352.057 57.3198L345.333 57.3198L345.333 43.1663L359.487 43.1663L359.487 49.89Z" stroke="#C1D1ED" stroke-width="0.737711" stroke-miterlimit="10"/>
<path d="M359.487 49.8899C363.587 49.8899 366.917 53.2201 366.917 57.3197C366.917 61.4193 363.587 64.7495 359.487 64.7495C355.387 64.7495 352.057 61.4193 352.057 57.3197L359.487 57.3197L359.487 49.8899Z" stroke="#C1D1ED" stroke-width="0.737711" stroke-miterlimit="10"/>
<path d="M373.64 50.5959C373.64 54.6955 376.971 58.0258 381.07 58.0258L381.07 64.7495L366.917 64.7495L366.917 50.5959L373.64 50.5959Z" stroke="#C1D1ED" stroke-width="0.737711" stroke-miterlimit="10"/>
<path d="M373.64 50.5961C373.64 46.4965 376.971 43.1663 381.07 43.1663C385.17 43.1663 388.5 46.4965 388.5 50.5961C388.5 54.6956 385.17 58.0259 381.07 58.0259L381.07 50.5961L373.64 50.5961Z" stroke="#C1D1ED" stroke-width="0.737711" stroke-miterlimit="10"/>
<path d="M416.807 50.5959C416.807 54.6955 420.137 58.0258 424.237 58.0258L424.237 64.7495L410.083 64.7495L410.083 50.5959L416.807 50.5959Z" stroke="#C1D1ED" stroke-width="0.737711" stroke-miterlimit="10"/>
<path d="M416.807 50.5961C416.807 46.4965 420.137 43.1663 424.237 43.1663C428.337 43.1663 431.667 46.4965 431.667 50.5961C431.667 54.6956 428.337 58.0259 424.237 58.0259L424.237 50.5961L416.807 50.5961Z" stroke="#C1D1ED" stroke-width="0.737711" stroke-miterlimit="10"/>
<path d="M424.237 58.0258L424.237 50.5959L416.807 50.5959C416.807 54.6955 420.137 58.0258 424.237 58.0258Z" fill="#3375DB"/>
<path d="M460.68 79.6083C464.779 79.6083 468.11 76.278 468.11 72.1785L474.833 72.1785L474.833 86.332L460.68 86.332L460.68 79.6083V79.6083Z" stroke="#C1D1ED" stroke-width="0.737711" stroke-miterlimit="10"/>
<path d="M460.68 79.6086C456.58 79.6086 453.25 76.2784 453.25 72.1788C453.25 68.0793 456.58 64.749 460.68 64.749C464.779 64.749 468.11 68.0793 468.11 72.1788L460.68 72.1788L460.68 79.6086Z" stroke="#C1D1ED" stroke-width="0.737711" stroke-miterlimit="10"/>
<path d="M468.11 72.1785L460.68 72.1785L460.68 79.6083C464.779 79.6083 468.11 76.278 468.11 72.1785Z" fill="#3375DB"/>
<path d="M445.82 49.89C441.72 49.89 438.39 53.2202 438.39 57.3198L431.667 57.3198L431.667 43.1663L445.82 43.1663L445.82 49.89V49.89Z" stroke="#C1D1ED" stroke-width="0.737711" stroke-miterlimit="10"/>
<path d="M445.82 49.8899C449.92 49.8899 453.25 53.2201 453.25 57.3197C453.25 61.4193 449.92 64.7495 445.82 64.7495C441.721 64.7495 438.39 61.4193 438.39 57.3197L445.82 57.3197L445.82 49.8899Z" stroke="#C1D1ED" stroke-width="0.737711" stroke-miterlimit="10"/>
<path d="M488.987 49.89C484.887 49.89 481.557 53.2202 481.557 57.3198L474.833 57.3198L474.833 43.1663L488.987 43.1663L488.987 49.89Z" stroke="#C1D1ED" stroke-width="0.737711" stroke-miterlimit="10"/>
<path d="M488.987 49.8899C493.087 49.8899 496.417 53.2201 496.417 57.3197C496.417 61.4193 493.087 64.7495 488.987 64.7495C484.888 64.7495 481.557 61.4193 481.557 57.3197L488.987 57.3197L488.987 49.8899Z" stroke="#C1D1ED" stroke-width="0.737711" stroke-miterlimit="10"/>
<path d="M481.557 57.3197L488.987 57.3197L488.987 49.8899C484.887 49.8899 481.557 53.2201 481.557 57.3197Z" fill="#3375DB"/>
<path d="M503.14 50.5959C503.14 54.6955 506.471 58.0258 510.57 58.0258L510.57 64.7495L496.417 64.7495L496.417 50.5959L503.14 50.5959Z" stroke="#C1D1ED" stroke-width="0.737711" stroke-miterlimit="10"/>
<path d="M503.14 50.5961C503.14 46.4965 506.471 43.1663 510.57 43.1663C514.67 43.1663 518 46.4965 518 50.5961C518 54.6956 514.67 58.0259 510.57 58.0259L510.57 50.5961L503.14 50.5961Z" stroke="#C1D1ED" stroke-width="0.737711" stroke-miterlimit="10"/>
<path d="M510.57 58.0258L510.57 50.5959L503.14 50.5959C503.14 54.6955 506.471 58.0258 510.57 58.0258Z" fill="#3375DB"/>
<path d="M273.86 35.7368C273.86 31.6372 270.529 28.307 266.43 28.307L266.43 21.5833L280.583 21.5833L280.583 35.7368L273.86 35.7368Z" stroke="#C1D1ED" stroke-width="0.737711" stroke-miterlimit="10"/>
<path d="M273.859 35.7367C273.859 39.8363 270.529 43.1665 266.43 43.1665C262.33 43.1665 259 39.8363 259 35.7367C259 31.6371 262.33 28.3069 266.43 28.3069L266.43 35.7367L273.859 35.7367Z" stroke="#C1D1ED" stroke-width="0.737711" stroke-miterlimit="10"/>
<path d="M266.43 28.3069L266.43 35.7367L273.859 35.7367C273.859 31.6371 270.529 28.3069 266.43 28.3069Z" fill="#3375DB"/>
<path d="M317.026 35.7368C317.026 31.6372 313.696 28.307 309.597 28.307L309.597 21.5833L323.75 21.5833L323.75 35.7368L317.026 35.7368Z" stroke="#C1D1ED" stroke-width="0.737711" stroke-miterlimit="10"/>
<path d="M317.026 35.7367C317.026 39.8363 313.696 43.1665 309.596 43.1665C305.497 43.1665 302.167 39.8363 302.167 35.7367C302.167 31.6371 305.497 28.3069 309.596 28.3069L309.596 35.7367L317.026 35.7367Z" stroke="#C1D1ED" stroke-width="0.737711" stroke-miterlimit="10"/>
<path d="M288.013 36.4425C292.113 36.4425 295.443 33.1123 295.443 29.0127L302.167 29.0127L302.167 43.1662L288.013 43.1662L288.013 36.4425Z" stroke="#C1D1ED" stroke-width="0.737711" stroke-miterlimit="10"/>
<path d="M288.013 36.4429C283.914 36.4429 280.583 33.1126 280.583 29.0131C280.583 24.9135 283.914 21.5833 288.013 21.5833C292.113 21.5833 295.443 24.9135 295.443 29.0131L288.013 29.0131L288.013 36.4429Z" stroke="#C1D1ED" stroke-width="0.737711" stroke-miterlimit="10"/>
<path d="M295.443 29.0127L288.013 29.0127L288.013 36.4425C292.113 36.4425 295.443 33.1123 295.443 29.0127Z" fill="#3375DB"/>
<path d="M331.18 36.4425C335.279 36.4425 338.61 33.1123 338.61 29.0127L345.333 29.0127L345.333 43.1662L331.18 43.1662L331.18 36.4425Z" stroke="#C1D1ED" stroke-width="0.737711" stroke-miterlimit="10"/>
<path d="M331.18 36.4429C327.08 36.4429 323.75 33.1126 323.75 29.0131C323.75 24.9135 327.08 21.5833 331.18 21.5833C335.279 21.5833 338.61 24.9135 338.61 29.0131L331.18 29.0131L331.18 36.4429Z" stroke="#C1D1ED" stroke-width="0.737711" stroke-miterlimit="10"/>
<path d="M273.153 6.72371C269.054 6.72371 265.724 10.054 265.724 14.1535L259 14.1535L259 -2.93355e-07L273.153 0L273.153 6.72371Z" stroke="#C1D1ED" stroke-width="0.737711" stroke-miterlimit="10"/>
<path d="M273.154 6.72363C277.253 6.72363 280.583 10.0539 280.583 14.1534C280.583 18.253 277.253 21.5833 273.154 21.5832C269.054 21.5832 265.724 18.253 265.724 14.1534L273.154 14.1534L273.154 6.72363V6.72363Z" stroke="#C1D1ED" stroke-width="0.737711" stroke-miterlimit="10"/>
<path d="M287.307 7.42944C287.307 11.529 290.637 14.8593 294.737 14.8593L294.737 21.583L280.583 21.583L280.583 7.42944L287.307 7.42944Z" stroke="#C1D1ED" stroke-width="0.737711" stroke-miterlimit="10"/>
<path d="M287.307 7.42981C287.307 3.33024 290.637 -2.38966e-07 294.737 -1.53995e-07C298.836 -6.90249e-08 302.167 3.33024 302.167 7.42981C302.167 11.5294 298.836 14.8596 294.737 14.8596L294.737 7.42981L287.307 7.42981Z" stroke="#C1D1ED" stroke-width="0.737711" stroke-miterlimit="10"/>
<path d="M316.32 6.72371C312.221 6.72371 308.89 10.054 308.89 14.1535L302.167 14.1535L302.167 -2.93356e-07L316.32 0L316.32 6.72371Z" stroke="#C1D1ED" stroke-width="0.737711" stroke-miterlimit="10"/>
<path d="M316.32 6.72363C320.42 6.72363 323.75 10.0539 323.75 14.1534C323.75 18.253 320.42 21.5833 316.32 21.5832C312.221 21.5832 308.89 18.253 308.89 14.1534L316.32 14.1534L316.32 6.72363V6.72363Z" stroke="#C1D1ED" stroke-width="0.737711" stroke-miterlimit="10"/>
<path d="M308.89 14.1534L316.32 14.1534L316.32 6.72363C312.221 6.72363 308.89 10.0539 308.89 14.1534Z" fill="#3375DB"/>
<path d="M330.474 7.42944C330.474 11.529 333.804 14.8593 337.904 14.8593L337.904 21.583L323.75 21.583L323.75 7.42944L330.474 7.42944Z" stroke="#C1D1ED" stroke-width="0.737711" stroke-miterlimit="10"/>
<path d="M330.474 7.42981C330.474 3.33024 333.804 -2.38966e-07 337.904 -1.53995e-07C342.003 -6.90249e-08 345.333 3.33024 345.333 7.42981C345.333 11.5294 342.003 14.8596 337.904 14.8596L337.904 7.42981L330.474 7.42981Z" stroke="#C1D1ED" stroke-width="0.737711" stroke-miterlimit="10"/>
<path d="M337.904 14.8593L337.904 7.42944L330.474 7.42944C330.474 11.529 333.804 14.8593 337.904 14.8593Z" fill="#3375DB"/>
<path d="M360.193 35.7368C360.193 31.6372 356.863 28.307 352.763 28.307L352.763 21.5833L366.917 21.5833L366.917 35.7368L360.193 35.7368Z" stroke="#C1D1ED" stroke-width="0.737711" stroke-miterlimit="10"/>
<path d="M360.193 35.7367C360.193 39.8363 356.863 43.1665 352.763 43.1665C348.664 43.1665 345.333 39.8363 345.333 35.7367C345.333 31.6371 348.664 28.3069 352.763 28.3069L352.763 35.7367L360.193 35.7367Z" stroke="#C1D1ED" stroke-width="0.737711" stroke-miterlimit="10"/>
<path d="M352.763 28.3069L352.763 35.7367L360.193 35.7367C360.193 31.6371 356.863 28.3069 352.763 28.3069Z" fill="#3375DB"/>
<path d="M403.36 35.7368C403.36 31.6372 400.029 28.307 395.93 28.307L395.93 21.5833L410.083 21.5833L410.083 35.7368L403.36 35.7368Z" stroke="#C1D1ED" stroke-width="0.737711" stroke-miterlimit="10"/>
<path d="M403.36 35.7367C403.36 39.8363 400.029 43.1665 395.93 43.1665C391.83 43.1665 388.5 39.8363 388.5 35.7367C388.5 31.6371 391.83 28.3069 395.93 28.3069L395.93 35.7367L403.36 35.7367Z" stroke="#C1D1ED" stroke-width="0.737711" stroke-miterlimit="10"/>
<path d="M374.346 36.4425C378.446 36.4425 381.776 33.1123 381.776 29.0127L388.5 29.0127L388.5 43.1662L374.346 43.1662L374.346 36.4425Z" stroke="#C1D1ED" stroke-width="0.737711" stroke-miterlimit="10"/>
<path d="M374.346 36.4429C370.247 36.4429 366.917 33.1126 366.917 29.0131C366.917 24.9135 370.247 21.5833 374.346 21.5833C378.446 21.5833 381.776 24.9135 381.776 29.0131L374.346 29.0131L374.346 36.4429Z" stroke="#C1D1ED" stroke-width="0.737711" stroke-miterlimit="10"/>
<path d="M381.776 29.0127L374.346 29.0127L374.346 36.4425C378.446 36.4425 381.776 33.1123 381.776 29.0127Z" fill="#3375DB"/>
<path d="M417.513 36.4425C421.613 36.4425 424.943 33.1123 424.943 29.0127L431.667 29.0127L431.667 43.1662L417.513 43.1662L417.513 36.4425Z" stroke="#C1D1ED" stroke-width="0.737711" stroke-miterlimit="10"/>
<path d="M417.513 36.4429C413.414 36.4429 410.083 33.1126 410.083 29.0131C410.083 24.9135 413.414 21.5833 417.513 21.5833C421.613 21.5833 424.943 24.9135 424.943 29.0131L417.513 29.0131L417.513 36.4429Z" stroke="#C1D1ED" stroke-width="0.737711" stroke-miterlimit="10"/>
<path d="M359.487 6.72371C355.387 6.72371 352.057 10.054 352.057 14.1535L345.333 14.1535L345.333 -2.93355e-07L359.487 0L359.487 6.72371Z" stroke="#C1D1ED" stroke-width="0.737711" stroke-miterlimit="10"/>
<path d="M359.487 6.72363C363.586 6.72363 366.917 10.0539 366.917 14.1534C366.917 18.253 363.586 21.5833 359.487 21.5832C355.387 21.5832 352.057 18.253 352.057 14.1534L359.487 14.1534L359.487 6.72363V6.72363Z" stroke="#C1D1ED" stroke-width="0.737711" stroke-miterlimit="10"/>
<path d="M373.64 7.42944C373.64 11.529 376.971 14.8593 381.07 14.8593L381.07 21.583L366.917 21.583L366.917 7.42944L373.64 7.42944Z" stroke="#C1D1ED" stroke-width="0.737711" stroke-miterlimit="10"/>
<path d="M373.64 7.42981C373.64 3.33024 376.971 -2.38966e-07 381.07 -1.53995e-07C385.17 -6.90249e-08 388.5 3.33024 388.5 7.42981C388.5 11.5294 385.17 14.8596 381.07 14.8596L381.07 7.42981L373.64 7.42981Z" stroke="#C1D1ED" stroke-width="0.737711" stroke-miterlimit="10"/>
<path d="M402.654 6.72371C398.554 6.72371 395.224 10.054 395.224 14.1535L388.5 14.1535L388.5 -2.93356e-07L402.654 0L402.654 6.72371Z" stroke="#C1D1ED" stroke-width="0.737711" stroke-miterlimit="10"/>
<path d="M402.654 6.72363C406.753 6.72363 410.083 10.0539 410.083 14.1534C410.083 18.253 406.753 21.5833 402.654 21.5832C398.554 21.5832 395.224 18.253 395.224 14.1534L402.654 14.1534L402.654 6.72363V6.72363Z" stroke="#C1D1ED" stroke-width="0.737711" stroke-miterlimit="10"/>
<path d="M395.224 14.1534L402.654 14.1534L402.654 6.72363C398.554 6.72363 395.224 10.0539 395.224 14.1534Z" fill="#3375DB"/>
<path d="M416.807 7.42944C416.807 11.529 420.137 14.8593 424.237 14.8593L424.237 21.583L410.083 21.583L410.083 7.42944L416.807 7.42944Z" stroke="#C1D1ED" stroke-width="0.737711" stroke-miterlimit="10"/>
<path d="M416.807 7.42981C416.807 3.33024 420.137 -2.38966e-07 424.237 -1.53995e-07C428.336 -6.90247e-08 431.667 3.33024 431.667 7.42981C431.667 11.5294 428.336 14.8596 424.237 14.8596L424.237 7.42981L416.807 7.42981Z" stroke="#C1D1ED" stroke-width="0.737711" stroke-miterlimit="10"/>
<path d="M424.237 14.8593L424.237 7.42944L416.807 7.42944C416.807 11.529 420.137 14.8593 424.237 14.8593Z" fill="#3375DB"/>
<path d="M446.526 35.7368C446.526 31.6372 443.196 28.307 439.096 28.307L439.096 21.5833L453.25 21.5833L453.25 35.7368L446.526 35.7368Z" stroke="#C1D1ED" stroke-width="0.737711" stroke-miterlimit="10"/>
<path d="M446.526 35.7367C446.526 39.8363 443.196 43.1665 439.096 43.1665C434.997 43.1665 431.667 39.8363 431.667 35.7367C431.667 31.6371 434.997 28.3069 439.096 28.3069L439.096 35.7367L446.526 35.7367Z" stroke="#C1D1ED" stroke-width="0.737711" stroke-miterlimit="10"/>
<path d="M439.096 28.3069L439.096 35.7367L446.526 35.7367C446.526 31.6371 443.196 28.3069 439.096 28.3069Z" fill="#3375DB"/>
<path d="M489.693 35.7368C489.693 31.6372 486.363 28.307 482.263 28.307L482.263 21.5833L496.417 21.5833L496.417 35.7368L489.693 35.7368Z" stroke="#C1D1ED" stroke-width="0.737711" stroke-miterlimit="10"/>
<path d="M489.693 35.7367C489.693 39.8363 486.363 43.1665 482.263 43.1665C478.164 43.1665 474.833 39.8363 474.833 35.7367C474.833 31.6371 478.164 28.3069 482.263 28.3069L482.263 35.7367L489.693 35.7367Z" stroke="#C1D1ED" stroke-width="0.737711" stroke-miterlimit="10"/>
<path d="M460.68 36.4425C464.779 36.4425 468.109 33.1123 468.109 29.0127L474.833 29.0127L474.833 43.1662L460.68 43.1662L460.68 36.4425V36.4425Z" stroke="#C1D1ED" stroke-width="0.737711" stroke-miterlimit="10"/>
<path d="M460.68 36.4429C456.58 36.4429 453.25 33.1126 453.25 29.0131C453.25 24.9135 456.58 21.5833 460.68 21.5833C464.779 21.5833 468.109 24.9135 468.109 29.0131L460.68 29.0131L460.68 36.4429Z" stroke="#C1D1ED" stroke-width="0.737711" stroke-miterlimit="10"/>
<path d="M468.109 29.0127L460.68 29.0127L460.68 36.4425C464.779 36.4425 468.109 33.1123 468.109 29.0127Z" fill="#3375DB"/>
<path d="M503.847 36.4435C507.946 36.4435 511.276 33.1132 511.276 29.0137L518 29.0137L518 43.1672L503.847 43.1672L503.847 36.4435Z" stroke="#C1D1ED" stroke-width="0.737711" stroke-miterlimit="10"/>
<path d="M503.846 36.4438C499.747 36.4438 496.417 33.1136 496.417 29.014C496.417 24.9145 499.747 21.5842 503.846 21.5842C507.946 21.5842 511.276 24.9145 511.276 29.014L503.846 29.014L503.846 36.4438Z" stroke="#C1D1ED" stroke-width="0.737711" stroke-miterlimit="10"/>
<path d="M445.82 6.72371C441.721 6.72371 438.391 10.054 438.391 14.1535L431.667 14.1535L431.667 -2.93356e-07L445.82 0L445.82 6.72371V6.72371Z" stroke="#C1D1ED" stroke-width="0.737711" stroke-miterlimit="10"/>
<path d="M445.82 6.72363C449.92 6.72363 453.25 10.0539 453.25 14.1534C453.25 18.253 449.92 21.5833 445.82 21.5832C441.721 21.5832 438.39 18.253 438.39 14.1534L445.82 14.1534L445.82 6.72363V6.72363Z" stroke="#C1D1ED" stroke-width="0.737711" stroke-miterlimit="10"/>
<path d="M459.974 7.42944C459.974 11.529 463.304 14.8593 467.403 14.8593L467.403 21.583L453.25 21.583L453.25 7.42944L459.974 7.42944Z" stroke="#C1D1ED" stroke-width="0.737711" stroke-miterlimit="10"/>
<path d="M459.974 7.42981C459.974 3.33024 463.304 -2.38966e-07 467.404 -1.53995e-07C471.503 -6.90249e-08 474.833 3.33024 474.833 7.42981C474.833 11.5294 471.503 14.8596 467.404 14.8596L467.404 7.42981L459.974 7.42981Z" stroke="#C1D1ED" stroke-width="0.737711" stroke-miterlimit="10"/>
<path d="M488.987 6.72371C484.887 6.72371 481.557 10.054 481.557 14.1535L474.833 14.1535L474.833 -2.93356e-07L488.987 0L488.987 6.72371Z" stroke="#C1D1ED" stroke-width="0.737711" stroke-miterlimit="10"/>
<path d="M488.987 6.72363C493.087 6.72363 496.417 10.0539 496.417 14.1534C496.417 18.253 493.087 21.5833 488.987 21.5832C484.887 21.5832 481.557 18.253 481.557 14.1534L488.987 14.1534L488.987 6.72363V6.72363Z" stroke="#C1D1ED" stroke-width="0.737711" stroke-miterlimit="10"/>
<path d="M481.557 14.1534L488.987 14.1534L488.987 6.72363C484.887 6.72363 481.557 10.0539 481.557 14.1534Z" fill="#3375DB"/>
<path d="M503.14 7.42944C503.14 11.529 506.471 14.8593 510.57 14.8593L510.57 21.583L496.417 21.583L496.417 7.42944L503.14 7.42944Z" stroke="#C1D1ED" stroke-width="0.737711" stroke-miterlimit="10"/>
<path d="M503.14 7.42981C503.14 3.33024 506.471 -2.38966e-07 510.57 -1.53995e-07C514.67 -6.90248e-08 518 3.33024 518 7.42981C518 11.5294 514.67 14.8596 510.57 14.8596L510.57 7.42981L503.14 7.42981Z" stroke="#C1D1ED" stroke-width="0.737711" stroke-miterlimit="10"/>
<path d="M510.57 14.8593L510.57 7.42944L503.14 7.42944C503.14 11.529 506.471 14.8593 510.57 14.8593Z" fill="#3375DB"/>
</g>
<defs>
<clipPath id="clip0_142_2305">
<rect width="518" height="86.3326" fill="white"/>
</clipPath>
</defs>
</svg>
