
<svg width="46px" height="18px" viewBox="0 0 46 18" version="1.1" xmlns="http://www.w3.org/2000/svg" xmlns:xlink="http://www.w3.org/1999/xlink">
    <g id="Page-1" stroke="none" stroke-width="1" fill="none" fill-rule="evenodd">
        <g id="Home" transform="translate(-387.000000, -862.000000)" fill="#747678">
            <g id="pse" transform="translate(387.000000, 862.000000)">
                <path d="M34.7526,13.2923 L29.7948,13.2923 C29.639,13.2923 29.5132,13.1666 29.5132,13.0107 C29.5132,12.8549 29.639,12.7292 29.7948,12.7292 L34.7264,12.7292 C34.9141,12.6897 36.2169,12.3612 36.2751,10.8331 C36.3333,9.3182 35.4641,9.1661 35.3233,9.1511 C35.3233,9.1511 32.1451,9.1511 32.1414,9.1511 C30.8648,8.939 30.5982,7.7901 30.6358,7.18 C30.6283,5.5937 31.9668,4.8841 32.6783,4.7301 C32.697,4.7264 32.7177,4.7245 32.7383,4.7245 L37.2025,4.7245 C37.3583,4.7245 37.4841,4.8503 37.4841,5.0061 C37.4841,5.1619 37.3583,5.2877 37.2025,5.2877 L32.7721,5.2877 C32.5562,5.3421 31.1896,5.7476 31.2008,7.1875 C31.2008,7.195 31.2008,7.2006 31.2008,7.2081 C31.1971,7.2569 31.1389,8.3927 32.2127,8.5879 C32.2127,8.5879 35.3552,8.5879 35.3534,8.5879 C35.3684,8.5879 36.9228,8.7062 36.842,10.8538 C36.7782,12.5152 35.4829,13.1722 34.8052,13.2886 C34.7902,13.2905 34.7733,13.2923 34.7583,13.2923 L34.7526,13.2923 Z" id="Path"></path>
                <path d="M44.0958,13.3224 L39.5209,13.3224 C39.5115,13.3224 39.5003,13.3224 39.4909,13.3224 C38.8883,13.2586 37.7394,12.838 37.715,11.7117 C37.6887,10.514 38.4903,6.8758 38.5241,6.7219 C38.5278,6.7088 38.5297,6.6975 38.5354,6.6844 C38.5635,6.6093 39.2356,4.8409 40.7261,4.8409 L44.017,4.8409 C44.0433,4.8409 44.0695,4.8446 44.0958,4.8521 C44.154,4.869 45.5038,5.2727 45.5038,6.4347 C45.5038,7.4109 45.2184,9.0629 45.2053,9.1323 C45.1828,9.2656 45.0664,9.3651 44.9312,9.3651 L38.5635,9.4177 C38.4021,10.3225 38.2688,11.2311 38.28,11.6985 C38.3007,12.5715 39.397,12.7423 39.5397,12.7611 L44.0977,12.7611 C44.2535,12.7611 44.3793,12.8869 44.3793,13.0427 C44.3793,13.1985 44.2535,13.3243 44.0977,13.3243 L44.0958,13.3224 Z M39.0685,6.8608 C39.0366,7.0054 38.8489,7.8689 38.663,8.8507 L44.6853,8.8 C44.7641,8.3101 44.9368,7.1499 44.9368,6.4309 C44.9368,5.772 44.1465,5.4623 43.97,5.4022 L40.7242,5.4022 C39.6842,5.4022 39.1323,6.7013 39.0685,6.8608 Z" id="Shape" fill-rule="nonzero"></path>
                <path d="M21.2081,17.0169 C21.1912,17.0169 21.1743,17.0169 21.1574,17.0131 C21.0035,16.9849 20.9021,16.8385 20.9303,16.6865 C20.9303,16.6865 21.379,14.2066 21.8295,11.7267 C22.0548,10.4858 22.2819,9.2468 22.4528,8.3157 C22.5391,7.8502 22.6104,7.4616 22.663,7.1912 C22.7062,6.966 22.7325,6.8195 22.7644,6.7219 L22.7588,6.7219 C23.076,5.8509 24.0672,4.9197 24.7975,4.8034 C24.8237,4.7996 24.8482,4.7996 24.8744,4.8034 C25.0603,4.809 26.8456,4.8052 28.0245,4.8034 C28.2967,4.7977 29.7572,5.3496 29.5864,6.5042 C29.5864,6.5135 29.5864,6.5248 29.5826,6.5342 L28.7979,11.3287 C28.7979,11.34 28.7942,11.3494 28.7904,11.3588 C28.7735,11.4188 28.3605,12.8343 26.9882,13.2473 C26.9638,13.2548 26.9394,13.2586 26.915,13.2586 L24.0222,13.3412 C24.0109,13.3412 23.9996,13.3412 23.9884,13.3412 C23.9433,13.3374 23.0291,13.2398 22.2932,12.3124 C21.9816,14.0245 21.6699,15.7403 21.4803,16.7897 C21.4559,16.9268 21.3377,17.0206 21.2044,17.0206 L21.2081,17.0169 Z M22.4434,11.5033 C23.0159,12.594 23.9001,12.7573 24.0315,12.7761 L26.8643,12.6954 C27.8499,12.3781 28.2066,11.3438 28.2479,11.2161 L29.027,6.4572 C29.1077,5.926 28.2948,5.359 27.9607,5.3628 C27.7542,5.3628 27.0952,5.3665 26.4363,5.3665 C26.0383,5.3665 25.6404,5.3665 25.3419,5.3665 C25.1373,5.3665 24.9908,5.3665 24.8819,5.359 C24.4051,5.4397 23.5566,6.1982 23.2938,6.904 C23.245,7.1255 22.862,9.2131 22.4434,11.5033 Z" id="Shape" fill-rule="nonzero"></path>
                <path d="M17.4048,3.6113 C17.4048,4.0449 17.0537,4.396 16.6201,4.396 C16.1864,4.396 15.8354,4.0449 15.8354,3.6113 C15.8354,3.1776 16.1864,2.8247 16.6201,2.8247 C17.0537,2.8247 17.4048,3.1758 17.4048,3.6113 Z" id="Path"></path>
                <path d="M14.8404,1.7265 C15.2738,1.7265 15.6251,1.3752 15.6251,0.9418 C15.6251,0.5084 15.2738,0.1571 14.8404,0.1571 C14.407,0.1571 14.0557,0.5084 14.0557,0.9418 C14.0557,1.3752 14.407,1.7265 14.8404,1.7265 Z" id="Path"></path>
                <path d="M13.8398,3.6113 C13.8398,4.0449 13.4888,4.396 13.0551,4.396 C12.6215,4.396 12.2704,4.0449 12.2704,3.6113 C12.2704,3.1776 12.6215,2.8247 13.0551,2.8247 C13.4888,2.8247 13.8398,3.1758 13.8398,3.6113 Z" id="Path"></path>
                <path d="M16.5281,15.0927 C16.9615,15.0927 17.3128,14.7413 17.3128,14.308 C17.3128,13.8746 16.9615,13.5233 16.5281,13.5233 C16.0947,13.5233 15.7434,13.8746 15.7434,14.308 C15.7434,14.7413 16.0947,15.0927 16.5281,15.0927 Z" id="Path"></path>
                <path d="M14.8367,12.5846 C15.2701,12.5846 15.6214,12.2333 15.6214,11.7999 C15.6214,11.3665 15.2701,11.0152 14.8367,11.0152 C14.4033,11.0152 14.052,11.3665 14.052,11.7999 C14.052,12.2333 14.4033,12.5846 14.8367,12.5846 Z" id="Path"></path>
                <path d="M11.3694,12.4495 C11.7281,12.4495 12.0189,12.1587 12.0189,11.7999 C12.0189,11.4412 11.7281,11.1504 11.3694,11.1504 C11.0107,11.1504 10.7198,11.4412 10.7198,11.7999 C10.7198,12.1587 11.0107,12.4495 11.3694,12.4495 Z" id="Path"></path>
                <path d="M13.7535,14.308 C13.7535,14.6665 13.4626,14.9575 13.104,14.9575 C12.7454,14.9575 12.4545,14.6665 12.4545,14.308 C12.4545,13.9494 12.7454,13.6584 13.104,13.6584 C13.4626,13.6584 13.7535,13.9494 13.7535,14.308 Z" id="Path"></path>
                <path d="M11.3243,17.7077 C11.6831,17.7077 11.9739,17.4169 11.9739,17.0582 C11.9739,16.6994 11.6831,16.4086 11.3243,16.4086 C10.9656,16.4086 10.6748,16.6994 10.6748,17.0582 C10.6748,17.4169 10.9656,17.7077 11.3243,17.7077 Z" id="Path"></path>
                <path d="M9.6423,14.8111 C9.9201,14.8111 10.1454,14.5858 10.1454,14.308 C10.1454,14.0301 9.9201,13.8049 9.6423,13.8049 C9.3644,13.8049 9.1392,14.0301 9.1392,14.308 C9.1392,14.5858 9.3644,14.8111 9.6423,14.8111 Z" id="Path"></path>
                <path d="M3.4529,9.5472 C3.7308,9.5472 3.956,9.322 3.956,9.0441 C3.956,8.7663 3.7308,8.541 3.4529,8.541 C3.1751,8.541 2.94983,8.7663 2.94983,9.0441 C2.94983,9.322 3.1751,9.5472 3.4529,9.5472 Z" id="Path"></path>
                <path d="M4.3541,6.8646 C4.6319,6.8646 4.8572,6.6394 4.8572,6.3615 C4.8572,6.0836 4.6319,5.8584 4.3541,5.8584 C4.0762,5.8584 3.851,6.0836 3.851,6.3615 C3.851,6.6394 4.0762,6.8646 4.3541,6.8646 Z" id="Path"></path>
                <path d="M6.5636,3.6113 C6.5636,3.8891 6.3383,4.1144 6.0605,4.1144 C5.7826,4.1144 5.5574,3.8891 5.5574,3.6113 C5.5574,3.3334 5.7826,3.1082 6.0605,3.1082 C6.3383,3.1082 6.5636,3.3334 6.5636,3.6113 Z" id="Path"></path>
                <path d="M8.2944,1.0019 C8.2944,1.2797 8.0692,1.505 7.7913,1.505 C7.5135,1.505 7.2882,1.2797 7.2882,1.0019 C7.2882,0.7241 7.5135,0.4988 7.7913,0.4988 C8.0692,0.4988 8.2944,0.7241 8.2944,1.0019 Z" id="Path"></path>
                <path d="M7.8401,17.5613 C8.118,17.5613 8.3433,17.336 8.3433,17.0582 C8.3433,16.7803 8.118,16.5551 7.8401,16.5551 C7.5623,16.5551 7.337,16.7803 7.337,17.0582 C7.337,17.336 7.5623,17.5613 7.8401,17.5613 Z" id="Path"></path>
                <path d="M6.1092,14.8111 C6.3871,14.8111 6.6124,14.5858 6.6124,14.308 C6.6124,14.0301 6.3871,13.8049 6.1092,13.8049 C5.8314,13.8049 5.6061,14.0301 5.6061,14.308 C5.6061,14.5858 5.8314,14.8111 6.1092,14.8111 Z" id="Path"></path>
                <path d="M4.3296,12.303 C4.6075,12.303 4.8328,12.0778 4.8328,11.7999 C4.8328,11.5221 4.6075,11.2968 4.3296,11.2968 C4.0518,11.2968 3.8265,11.5221 3.8265,11.7999 C3.8265,12.0778 4.0518,12.303 4.3296,12.303 Z" id="Path"></path>
                <path d="M3.3797,14.567 C3.5228,14.567 3.6388,14.451 3.6388,14.308 C3.6388,14.1649 3.5228,14.0489 3.3797,14.0489 C3.2367,14.0489 3.1207,14.1649 3.1207,14.308 C3.1207,14.451 3.2367,14.567 3.3797,14.567 Z" id="Path"></path>
                <path d="M1.75967,12.059 C1.90275,12.059 2.01874,11.943 2.01874,11.7999 C2.01874,11.6568 1.90275,11.5408 1.75967,11.5408 C1.6166,11.5408 1.50061,11.6568 1.50061,11.7999 C1.50061,11.943 1.6166,12.059 1.75967,12.059 Z" id="Path"></path>
                <path d="M1.02002,8.9972 C1.02002,9.1398 0.90363,9.2562 0.76096,9.2562 C0.61828,9.2562 0.50189,9.1398 0.50189,8.9972 C0.50189,8.8545 0.61828,8.7381 0.76096,8.7381 C0.90363,8.7381 1.02002,8.8545 1.02002,8.9972 Z" id="Path"></path>
                <path d="M1.68643,6.6243 C1.82951,6.6243 1.94549,6.5083 1.94549,6.3652 C1.94549,6.2221 1.82951,6.1061 1.68643,6.1061 C1.54335,6.1061 1.42737,6.2221 1.42737,6.3652 C1.42737,6.5083 1.54335,6.6243 1.68643,6.6243 Z" id="Path"></path>
                <path d="M3.4398,3.8948 C3.5829,3.8948 3.6989,3.7788 3.6989,3.6357 C3.6989,3.4926 3.5829,3.3766 3.4398,3.3766 C3.2967,3.3766 3.1807,3.4926 3.1807,3.6357 C3.1807,3.7788 3.2967,3.8948 3.4398,3.8948 Z" id="Path"></path>
                <path d="M7.8157,12.4495 C8.1745,12.4495 8.4653,12.1587 8.4653,11.7999 C8.4653,11.4412 8.1745,11.1504 7.8157,11.1504 C7.457,11.1504 7.1662,11.4412 7.1662,11.7999 C7.1662,12.1587 7.457,12.4495 7.8157,12.4495 Z" id="Path"></path>
                <path d="M5.9872,9.7011 C6.346,9.7011 6.6368,9.4103 6.6368,9.0516 C6.6368,8.6928 6.346,8.402 5.9872,8.402 C5.6285,8.402 5.3377,8.6928 5.3377,9.0516 C5.3377,9.4103 5.6285,9.7011 5.9872,9.7011 Z" id="Path"></path>
                <path d="M8.4409,6.3614 C8.4409,6.72 8.1499,7.011 7.7913,7.011 C7.4328,7.011 7.1418,6.72 7.1418,6.3614 C7.1418,6.0029 7.4328,5.7119 7.7913,5.7119 C8.1499,5.7119 8.4409,6.0029 8.4409,6.3614 Z" id="Path"></path>
                <path d="M9.5935,4.2608 C9.9522,4.2608 10.243,3.97 10.243,3.6113 C10.243,3.2525 9.9522,2.9617 9.5935,2.9617 C9.2348,2.9617 8.944,3.2525 8.944,3.6113 C8.944,3.97 9.2348,4.2608 9.5935,4.2608 Z" id="Path"></path>
                <path d="M11.2999,1.6045 C11.6587,1.6045 11.9495,1.3137 11.9495,0.955 C11.9495,0.5962 11.6587,0.3054 11.2999,0.3054 C10.9412,0.3054 10.6504,0.5962 10.6504,0.955 C10.6504,1.3137 10.9412,1.6045 11.2999,1.6045 Z" id="Path"></path>
                <path d="M9.5484,9.8363 C9.9818,9.8363 10.3331,9.485 10.3331,9.0516 C10.3331,8.6182 9.9818,8.2669 9.5484,8.2669 C9.1151,8.2669 8.7637,8.6182 8.7637,9.0516 C8.7637,9.485 9.1151,9.8363 9.5484,9.8363 Z" id="Path"></path>
                <path d="M11.3018,7.1462 C11.7352,7.1462 12.0865,6.7949 12.0865,6.3615 C12.0865,5.9281 11.7352,5.5768 11.3018,5.5768 C10.8684,5.5768 10.5171,5.9281 10.5171,6.3615 C10.5171,6.7949 10.8684,7.1462 11.3018,7.1462 Z" id="Path"></path>
                <path d="M14.8367,17.8428 C15.2701,17.8428 15.6214,17.4915 15.6214,17.0581 C15.6214,16.6248 15.2701,16.2734 14.8367,16.2734 C14.4033,16.2734 14.052,16.6248 14.052,17.0581 C14.052,17.4915 14.4033,17.8428 14.8367,17.8428 Z" id="Path"></path>
                <polygon id="Path" points="21.5705 8.7737 9.9464 8.7737 9.9464 9.2562 21.5705 9.2562"></polygon>
                <polygon id="Path" points="15.5369 6.1212 11.8819 6.1212 11.8819 6.6037 15.5369 6.6037"></polygon>
                <polygon id="Path" points="17.1082 9.2281 15.0958 6.1212 15.6571 6.1212 17.6695 9.2281"></polygon>
                <polygon id="Path" points="17.3128 11.5596 15.4487 11.5596 15.4487 12.0421 17.3128 12.0421"></polygon>
                <polygon id="Path" points="16.8698 12.0421 18.5386 9.2281 19.0211 9.2281 17.3522 12.0421"></polygon>
            </g>
        </g>
    </g>
</svg>